<?xml version="1.0" encoding="utf-8"?>
<!-- Generator: Adobe Illustrator 25.2.1, SVG Export Plug-In . SVG Version: 6.00 Build 0)  -->
<svg version="1.1" id="ef672dd0-2e16-4c9d-8107-606b55e40777"
	 xmlns="http://www.w3.org/2000/svg" xmlns:xlink="http://www.w3.org/1999/xlink" x="0px" y="0px" viewBox="0 0 844.7 595.3"
	 style="enable-background:new 0 0 844.7 595.3;" xml:space="preserve">
<style type="text/css">
	.st0{fill:#F47B56;}
	.st1{fill:#F2F2F2;}
	.st2{fill:#F1F2F3;}
	.st3{fill:#3F3D56;}
	.st4{fill:#2F2E41;}
	.st5{fill:#A0616A;}
	.st6{fill:#E6E6E6;}
	.st7{fill:#FFB8B8;}
	.st8{fill:#CCCCCC;}
</style>
<circle class="st0" cx="431.4" cy="548" r="46"/>
<path class="st1" d="M706.2,591.4c25.7-7.7,53.1-15.8,73.5-34.2c18.2-16.4,30.6-41.5,23-66.1c-7.5-24.6-30.1-41-53.4-49.1
	c-13.2-4.6-27.1-7.2-40.9-9.2c-15-2.2-30.1-4-45.2-5.7c-61.1-7-122.5-11.3-184-12.8c-30.4-0.8-60.8-0.7-91.2-0.3
	c-27.1,0.4-55.7,0.4-80.9-11.2c-19.6-9-37.3-25.3-42.8-46.7c-6.3-24.8,5.3-50,22-67.9c8.8-9.5,19-17.4,29.6-24.7
	c11.5-7.9,23.4-15.3,35.5-22.2c23.9-13.5,48.9-25.1,74.8-34.5c12.7-4.6,25.7-8.6,38.7-12.3c11-3.1,22.1-6.2,32.7-10.5
	c20.6-8.2,40.2-22.1,45.4-44.9c5-21.6-3.4-45-18.1-61.1c-17-18.6-42.5-26.7-67.1-28c-27.5-1.5-54.4,5.4-80.3,14.2
	c-27.6,9.3-54.6,20-82.8,27.6c-27.9,7.5-56.4,12.8-85.2,15.8c-14.1,1.5-28.6,3.2-42.8,2c-11.9-1-23.7-4.5-32.4-12.9
	c-7.5-7.2-12-17.2-10.4-27.6c0.3-1.9,3.2-1.1,2.9,0.8c-1.9,12.8,6.8,24.5,17.5,30.5c12.3,7,27.4,7,41.1,6.2
	c29.8-1.8,59.4-6.1,88.5-12.8c28.6-6.5,56.2-15.9,83.7-25.8c26.2-9.5,52.9-18.7,80.8-20.8c24.2-1.8,49.8,1.8,70.9,14.4
	c18.6,11.1,32.2,29.7,36.6,51c4.3,20.8-1.6,41.8-17.4,56.3c-16.3,15-38.7,21.5-59.6,27.4c-26.5,7.5-52.3,16.3-77.4,27.7
	c-25.4,11.5-49.8,25.2-72.8,40.9c-22.2,15.2-44.2,34.3-51.2,61.5c-3.3,12.6-2.7,26,2.8,38c4.9,10.6,12.9,19.5,22.3,26.4
	c22.3,16.4,50.5,19.8,77.4,20.1c30.3,0.4,60.6-0.6,90.9-0.1c61.7,1,123.3,4.8,184.8,11.3c15.4,1.6,30.8,3.4,46.2,5.4
	c13.8,1.8,27.7,3.5,41.3,6.7c24.2,5.6,47.7,16.4,62.7,36.9c6.7,8.9,10.8,19.4,11.9,30.4c1.1,11.5-1.8,23.1-7,33.3
	c-11.5,22.7-33.1,37.1-56.1,46.6c-12.3,5.1-25,8.9-37.8,12.7C705.1,594.9,704.4,592,706.2,591.4L706.2,591.4z"/>
<circle class="st2" cx="125.9" cy="69.5" r="24"/>
<circle class="st1" cx="292.4" cy="115" r="24"/>
<circle class="st1" cx="433.4" cy="24" r="24"/>
<circle class="st1" cx="521.4" cy="126" r="24"/>
<circle class="st1" cx="402.4" cy="244" r="24"/>
<ellipse transform="matrix(0.1602 -0.9871 0.9871 0.1602 -85.9892 500.9319)" class="st1" cx="251.4" cy="301" rx="24" ry="24"/>
<circle class="st1" cx="411.4" cy="390" r="24"/>
<circle class="st1" cx="583.4" cy="440" r="24"/>
<circle class="st1" cx="784.4" cy="429" r="24"/>
<path class="st0" d="M426.5,68c-71.9,0.5-130.8,58.9-131.8,130.8c0,0.7,0,5.3,0,11.4c0,18.6,15.1,33.7,33.7,33.7h0
	c18.6,0,33.8-15.1,33.8-33.8c0,0,0,0,0,0c0-4.2,0-7,0-7.2c0-35.3,28.6-64,64-64s64,28.6,64,64c0,21.8-11.1,42.1-29.5,53.9l0,0
	c0,0-48,30.9-62.7,73.3l0,0c-2.6,8.7-3.9,17.7-3.9,26.8c0,3.7,0.2,36.3,0.6,62.8c0.3,19,15.8,34.2,34.8,34.2h0
	c19.2,0,34.8-15.6,34.8-34.8c0-0.1,0-0.1,0-0.2c-0.1-24.2-0.2-52.4-0.2-54.5c0-26,25.1-52,45.8-68.9c23.8-19.5,40.9-46,47.7-76
	c1.5-6.2,2.4-12.5,2.5-18.8c0-73.3-59.4-132.8-132.7-132.8C427.1,68,426.8,68,426.5,68z"/>
<path class="st3" d="M677.6,595.3h-605c-0.5,0-0.9-0.5-0.9-1.2c0-0.7,0.4-1.2,0.9-1.2h605c0.5,0,0.9,0.5,0.9,1.2
	C678.4,594.7,678,595.3,677.6,595.3z"/>
<circle class="st4" cx="628.4" cy="243" r="30"/>
<polygon class="st5" points="573,582.1 560.8,582.1 554.9,534.8 573,534.8 "/>
<path class="st4" d="M552,578.6h23.6l0,0v14.9l0,0h-38.5l0,0l0,0C537.1,585.3,543.8,578.6,552,578.6z"/>
<polygon class="st5" points="668,582.1 655.8,582.1 649.9,534.8 668,534.8 "/>
<path class="st4" d="M647,578.6h23.6l0,0v14.9l0,0h-38.5l0,0l0,0C632.1,585.3,638.8,578.6,647,578.6z"/>
<circle class="st5" cx="623.9" cy="248.6" r="24.6"/>
<path class="st4" d="M638.5,352.4l11-25.2c5.5-12.1,2.7-26.4-6.9-35.6c-1-1-2-1.8-3.1-2.7c-5.4-4.2-12.1-6.6-19-6.6
	c-4.6,0-9.2,1-13.4,3c-0.4,0.2-0.7,0.3-1.1,0.5c-0.7,0.3-1.4,0.7-2,1.1c-8.7,5-14.6,13.9-15.7,23.9l-4.9,40.6
	c-1.2,3.2-44.7,118.4-29.5,206.3c0.3,1.9,1.9,3.4,3.8,3.7l15.4,2.1c2.3,0.3,4.5-1.2,5-3.5l25.9-123.4c0.4-1.9,2.3-3.1,4.1-2.7
	c1.3,0.3,2.3,1.2,2.7,2.5l36.6,129.8c0.5,1.9,2.3,3.3,4.3,3.3c0.3,0,0.6,0,0.9-0.1l18.8-3.6c2.3-0.4,3.8-2.5,3.6-4.8
	C672.4,530,657.6,375.2,638.5,352.4z"/>
<path class="st5" d="M528.4,269c-0.6,5.5,3.3,10.5,8.8,11.2c0.6,0.1,1.2,0.1,1.8,0l13.7,33l10.4-15.4l-14.6-29
	c-0.7-5.5-5.8-9.5-11.3-8.8C532.6,260.7,529,264.4,528.4,269L528.4,269z"/>
<path class="st5" d="M622.5,385.6c5.5-0.7,9.5-5.7,8.8-11.2c-0.1-0.6-0.2-1.2-0.4-1.7l28.9-21l-17.4-6.5l-24.8,21
	c-5.2,2-7.9,7.8-5.9,13C613.5,383.5,617.9,386.2,622.5,385.6L622.5,385.6z"/>
<path class="st4" d="M575.4,335.2c-1.1,0-2.2-0.1-3.3-0.3c-5.3-1-9.8-4.6-11.9-9.6L541,301.8c-1.6-1.9-1.3-4.8,0.6-6.3
	c0.2-0.1,0.3-0.2,0.5-0.3l13.7-8.5c2.1-1.3,4.9-0.7,6.2,1.5c0,0,0,0,0,0l13.6,22.3l26-19.2c4.8-2.5,10.6-0.7,13.1,4.1
	c2,3.8,1.3,8.5-1.8,11.5l-25.9,23.6C583.8,333.5,579.7,335.2,575.4,335.2z"/>
<path class="st4" d="M645.6,370.5c0,0-0.1,0-0.1,0c-1.3,0-2.5-0.6-3.3-1.6L630,354.7c-1.6-1.9-1.4-4.7,0.5-6.3
	c0.1-0.1,0.3-0.2,0.4-0.3l22.8-15.2l-20.6-24.8c-2.8-4.6-1.3-10.6,3.3-13.3c3.7-2.2,8.4-1.7,11.6,1.2l25.1,24.5
	c6.7,6.2,7.2,16.6,1.1,23.3c-1.3,1.5-2.9,2.7-4.7,3.6l-20.5,21.8C648,370,646.8,370.5,645.6,370.5z"/>
<path class="st6" d="M617.6,318.2c-0.2,0-0.4,0-0.6,0c-1.7-0.2-3.2-1.4-3.7-3.1l-9.1-28c-0.5-1.5,0.2-3.1,1.6-3.7l0.3-0.1
	c0.3-0.1,0.5-0.3,0.8-0.4c4.3-2,8.9-3,13.6-3c6.1,0,12.1,1.8,17.2,5.2c1.4,0.9,1.8,2.9,0.9,4.3l-17.2,26.9
	C620.6,317.4,619.2,318.2,617.6,318.2z"/>
<circle class="st4" cx="652.1" cy="219.8" r="9.8"/>
<path class="st4" d="M618.4,209L618.4,209c-14.4,0-26,11.6-26,26v11H606l6.5-11l1.9,11h41.1l-11-11C644.4,220.6,632.8,209,618.4,209
	z"/>
<path class="st4" d="M657.1,213.1c2.2-7,9.2-11.4,16.5-10.4c6.3,1,11.2,6.1,14.1,11.7s4.3,11.9,6.3,17.9s4.8,12.1,9.8,16
	s12.7,5,17.6,0.9c-1.5,11-11.6,18.7-22.6,17.3c-6.3-0.8-11.8-4.6-14.9-10.1c-2.6-4.6-3.3-10-4-15.3s-1.8-10.6-4.9-14.9
	s-8.9-7.1-13.8-5.1L657.1,213.1z"/>
<path class="st3" d="M337.9,228L337.9,228c-18.6,0-33.7-15.1-33.7-33.7c0-6.1,0-10.8,0-11.4c0.3-20.9,5.5-41.4,15.4-59.9
	c-16.1,22.1-25,48.6-25.4,75.9c0,0.7,0,5.3,0,11.4c0,18.6,15.1,33.7,33.7,33.7l0,0c15.1,0,28.4-10,32.5-24.6
	C354.3,225,346.2,228,337.9,228z"/>
<path class="st3" d="M428.8,139.1c35.3,1.7,62.6,31.7,60.9,67c-0.4,7.7-2.1,15.3-5.2,22.4c22.9-26.9,19.7-67.3-7.2-90.2
	c-26.9-22.9-67.3-19.7-90.2,7.2c-4.1,4.8-7.5,10.2-10,16C389.8,146.4,409,138.1,428.8,139.1z"/>
<path class="st3" d="M439.1,438L439.1,438c-19,0-34.5-15.2-34.8-34.2c-0.4-26.5-0.6-59.1-0.6-62.8c0-9.1,1.3-18.1,3.9-26.8l0,0
	c1.5-4.4,3.4-8.6,5.5-12.7c-6.6,8.7-11.8,18.4-15.5,28.7l0,0c-2.6,8.7-3.9,17.7-3.9,26.8c0,3.7,0.2,36.3,0.6,62.8
	c0.3,19,15.8,34.2,34.8,34.2l0,0c15.5,0,29.1-10.2,33.4-25C456.1,434.8,447.8,438.1,439.1,438z"/>
<polygon class="st7" points="126.5,582.6 138.8,582.6 144.6,535.3 126.5,535.3 "/>
<path class="st4" d="M162.4,594l-38.5,0l0,0l0-14.9l0,0l23.6,0C155.8,579.1,162.4,585.7,162.4,594L162.4,594L162.4,594z"/>
<polygon class="st7" points="82.5,582.6 94.8,582.6 100.6,535.3 82.5,535.3 "/>
<path class="st4" d="M118.4,594l-38.5,0l0,0l0-14.9l0,0l23.6,0C111.8,579.1,118.4,585.7,118.4,594L118.4,594L118.4,594z"/>
<path class="st4" d="M93.3,568l-12-0.6c-2.6-0.1-4.6-2.3-4.4-4.9c0,0,0,0,0-0.1L91.2,404l65.9,17.8l6.4-1.7l-19.9,140.3
	c-0.3,2.2-2.2,3.8-4.4,3.9l-12.9,0.6c-2.6,0.1-4.8-1.8-4.9-4.4c0-0.1,0-0.3,0-0.4l2.3-84.2c0-0.9-0.7-1.6-1.5-1.6
	c-0.8,0-1.4,0.5-1.6,1.2l-22.6,88.8c-0.4,2.2-2.4,3.7-4.6,3.7C93.4,568,93.3,568,93.3,568z"/>
<circle class="st7" cx="128.7" cy="249.8" r="24.6"/>
<path class="st8" d="M87.8,321.9l2.7,58.3l1,21.2c0.1,1.9,1.3,3.5,3.1,4.2l63.3,22.9c0.5,0.2,1.1,0.3,1.6,0.3c2.6,0,4.7-2.1,4.7-4.6
	c0-0.1,0-0.1,0-0.2l-2.6-104.8c-0.4-17.7-13.3-32.7-30.7-35.7c-0.6-0.1-1.2-0.2-1.9-0.3c-10.6-1.3-21.3,2.1-29.2,9.4
	C91.7,300.2,87.3,310.9,87.8,321.9L87.8,321.9z"/>
<path class="st7" d="M188.2,416.9c-5.3-1.6-8.3-7.3-6.6-12.6c0.3-0.9,0.7-1.8,1.3-2.6l-21.5-28.6l18.5-1.1l17.6,27.3
	c4.4,3.4,5.2,9.8,1.8,14.2C196.7,416.8,192.2,418.2,188.2,416.9z"/>
<path class="st8" d="M173.1,396.5c-1.1-0.5-2.1-1.4-2.5-2.5l-32.4-77.1c-2.7-6.3,0.3-13.7,6.7-16.3c6.3-2.7,13.7,0.3,16.3,6.7
	c0,0,0,0,0,0l32.4,77.1c1,2.4-0.1,5.1-2.5,6.1l-14.4,6C175.5,396.9,174.2,397,173.1,396.5L173.1,396.5z"/>
<path class="st3" d="M120.8,393.8l31.1-59.5c1.2-2.4,4.2-3.3,6.6-2.1l45.1,23.6c2.4,1.2,3.3,4.2,2.1,6.6l-31.1,59.5
	c-1.2,2.4-4.2,3.3-6.6,2.1l-45.1-23.6C120.5,399.1,119.6,396.1,120.8,393.8z"/>
<path class="st7" d="M141.7,366.6c-2-5.2-7.8-7.8-13-5.9c-0.9,0.3-1.8,0.8-2.6,1.4l-29.8-19.8l-0.1,18.6l28.3,15.9
	c3.7,4.2,10.1,4.6,14.3,1C142.1,375,143.2,370.5,141.7,366.6L141.7,366.6z"/>
<path class="st8" d="M104,370.7l-24.3-19.3c-9-3-13.8-12.7-10.8-21.7c0.7-2,1.7-3.8,3-5.4l22.1-29c3.5-4.3,9.9-5,14.2-1.4
	c3.5,2.8,4.6,7.6,2.9,11.7l-17.5,28.6l25.7,12.2c2.3,1.1,3.3,3.9,2.2,6.2c-0.1,0.2-0.2,0.3-0.3,0.5l-10.4,16.4
	c-0.7,1.1-1.9,1.9-3.2,2.1c0,0-0.1,0-0.1,0C106.4,371.9,105.1,371.6,104,370.7z"/>
<path class="st4" d="M110.2,266.2c-0.4-1.1,0.2-2.3,1.3-2.7c0.2-0.1,0.3-0.1,0.5-0.1c1.3,0.1,2.6,0.7,3.5,1.7c0.9,1,1.9,1.9,3.1,2.6
	c1.2,0.6,2.8,0.5,3.5-0.6c0.6-1.1,0.2-2.5-0.2-3.8c-1-3.2-1.5-6.5-1.6-9.8c-0.1-3.7,0.4-7.6,2.5-10.4c2.6-3.7,7.4-5.1,11.8-5
	s8.9,1.5,13.3,2.4c1.5,0.3,3.3,0.5,4.4-0.7c1.1-1.3,0.7-3.3,0.2-5c-1.2-4.4-2.5-9-5.3-12.6c-3-3.7-7.3-6.1-12.1-6.8
	c-4.5-0.6-9.2,0-13.5,1.5c-7,2.2-13.2,6.5-17.7,12.3c-4.6,6.2-6.6,13.9-5.6,21.6c1,6.7,4.6,12.7,9.9,16.9L110.2,266.2z"/>
<path class="st3" d="M421.3,582.8c-23.3-10.1-33.9-37.2-23.8-60.5c1.7-3.9,4-7.6,6.7-11c-20.5,15-25,43.8-10,64.3
	c15,20.5,43.8,25,64.3,10c3.1-2.3,5.9-4.9,8.3-7.8C453.6,587.4,436.2,589.3,421.3,582.8z"/>
</svg>
